<svg width="800" height="600" viewBox="0 0 800 600" fill="none" xmlns="http://www.w3.org/2000/svg">
  <rect width="800" height="600" rx="48" fill="#FFF7F0"/>
  <ellipse cx="612" cy="172" rx="118" ry="100" fill="#FFE3D2"/>
  <ellipse cx="184" cy="442" rx="132" ry="110" fill="#F5E5D8"/>
  <path d="M247 348C247 224.325 347.325 124 471 124C544.473 124 609.682 159.259 650.447 213.759C684.555 259.342 706 315.853 706 377.5C706 414.204 648.121 466 585 466C501.393 466 247 453.674 247 348Z" fill="#D58A7C"/>
  <path d="M280 324C280 231.768 354.768 157 447 157C547.075 157 628 237.925 628 338V360C628 392.033 602.033 418 570 418H338C306.52 418 280 392.48 280 361V324Z" fill="#F8C7B8"/>
  <path d="M408 188C459.191 154.562 532.239 154.195 581 201" stroke="#B46358" stroke-width="22" stroke-linecap="round"/>
</svg>
